<svg xmlns="http://www.w3.org/2000/svg" width="980" height="720" viewBox="0 0 980 720" font-family="'Helvetica Neue',Arial,sans-serif">
<rect width="980" height="720" fill="#F5F3EE"/>
<rect x="0" y="0" width="980" height="44" fill="#1C1C1C"/>
<text x="16" y="15" font-size="8" fill="#888" letter-spacing="2">BAJO LAS LOMITAS — DEPTO 102</text>
<text x="16" y="33" font-size="13" font-weight="bold" fill="#FFF">PLANTA ARQUITECTÓNICA  ·  BASE</text>
<text x="964" y="26" font-size="8" fill="#888" text-anchor="end">Escala 1:100  ·  70 px = 1 m</text>
<rect x="170" y="130" width="252" height="210" fill="#FFFFFF"/>
<rect x="464" y="130" width="98" height="210" fill="#FFFFFF"/>
<rect x="562" y="130" width="182" height="119" fill="#FFFFFF"/>
<rect x="744" y="130" width="84" height="119" fill="#FFFFFF"/>
<rect x="464" y="249" width="364" height="91" fill="#FFFFFF"/>
<rect x="170" y="340" width="515" height="210" fill="#FFFFFF"/>
<rect x="95" y="340" width="75" height="210" fill="#F0F0EE"/>
<rect x="685" y="340" width="200" height="119" fill="#FAFAF8"/>
<rect x="170" y="130" width="715" height="15" fill="#111111"/>
<rect x="170" y="145" width="15" height="195" fill="#111111"/>
<rect x="95" y="340" width="15" height="210" fill="#111111"/>
<rect x="95" y="535" width="590" height="15" fill="#111111"/>
<rect x="685" y="444" width="200" height="15" fill="#111111"/>
<rect x="870" y="340" width="15" height="104" fill="#111111"/>
<rect x="828" y="130" width="57" height="210" fill="#111111"/>
<rect x="422" y="130" width="42" height="210" fill="#111111"/>
<rect x="559" y="130" width="7" height="119" fill="#111111"/>
<rect x="741" y="130" width="7" height="119" fill="#111111"/>
<rect x="464" y="246" width="364" height="7" fill="#111111"/>
<rect x="95" y="333" width="590" height="7" fill="#111111"/>
<rect x="167" y="340" width="7" height="210" fill="#111111"/>
<rect x="682" y="340" width="7" height="119" fill="#111111"/>
<polygon points="170,130 885,130 885,459 685,459 685,550 95,550 95,340 170,340" fill="none" stroke="#111111" stroke-width="1.5"/>
<line x1="562" y1="246" x2="611" y2="246" stroke="#111111" stroke-width="1.5"/>
<path d="M 611,246 A 49,49 0 0,0 562,295" fill="none" stroke="#666" stroke-width="0.8" stroke-dasharray="4,2"/>
<line x1="744" y1="246" x2="793" y2="246" stroke="#111111" stroke-width="1.5"/>
<path d="M 793,246 A 49,49 0 0,1 744,295" fill="none" stroke="#666" stroke-width="0.8" stroke-dasharray="4,2"/>
<line x1="422" y1="333" x2="464" y2="333" stroke="#111111" stroke-width="1.5"/>
<path d="M 422,333 A 42,42 0 0,0 464,291" fill="none" stroke="#666" stroke-width="0.8" stroke-dasharray="4,2"/>
<line x1="870" y1="380" x2="870" y2="443" stroke="#111111" stroke-width="1.5"/>
<path d="M 870,443 A 63,63 0 0,1 807,443" fill="none" stroke="#666" stroke-width="0.8" stroke-dasharray="4,2"/>
<text x="895" y="415" font-size="18" fill="#111111" text-anchor="middle">⇐</text>
<line x1="464" y1="241" x2="559" y2="241" stroke="#111111" stroke-width="1.2"/>
<line x1="464" y1="251" x2="559" y2="251" stroke="#111111" stroke-width="1.2"/>
<text x="300" y="224" font-size="10" fill="#111111" text-anchor="middle" font-weight="bold">DORMITORIO</text>
<text x="512" y="180" font-size="8" fill="#111111" text-anchor="middle" font-weight="normal">CORREDOR</text>
<text x="650" y="178" font-size="9" fill="#111111" text-anchor="middle" font-weight="bold">BAÑO</text>
<text x="783" y="178" font-size="9" fill="#111111" text-anchor="middle" font-weight="bold">TOIL</text>
<text x="512" y="292" font-size="7" fill="#666" text-anchor="middle" font-weight="normal">corredor servicio</text>
<text x="423" y="450" font-size="11" fill="#111111" text-anchor="middle" font-weight="bold">ESTAR  /  COMEDOR</text>
<text x="107" y="460" font-size="8" fill="#111111" text-anchor="middle" font-weight="bold" transform="rotate(-90,107,460)">BALCÓN</text>
<text x="785" y="397" font-size="9" fill="#111111" text-anchor="middle" font-weight="normal">VESTÍBULO</text>
<line x1="170" y1="104" x2="422" y2="104" stroke="#444" stroke-width="0.7"/>
<line x1="170" y1="100" x2="170" y2="108" stroke="#444" stroke-width="0.7"/>
<line x1="422" y1="100" x2="422" y2="108" stroke="#444" stroke-width="0.7"/>
<line x1="170" y1="130" x2="170" y2="104" stroke="#444" stroke-width="0.5" stroke-dasharray="2,2"/>
<line x1="422" y1="130" x2="422" y2="104" stroke="#444" stroke-width="0.5" stroke-dasharray="2,2"/>
<text x="296" y="100" font-size="7.5" fill="#444" text-anchor="middle">3.60 m</text>
<line x1="422" y1="104" x2="464" y2="104" stroke="#444" stroke-width="0.7"/>
<line x1="422" y1="100" x2="422" y2="108" stroke="#444" stroke-width="0.7"/>
<line x1="464" y1="100" x2="464" y2="108" stroke="#444" stroke-width="0.7"/>
<line x1="422" y1="130" x2="422" y2="104" stroke="#444" stroke-width="0.5" stroke-dasharray="2,2"/>
<line x1="464" y1="130" x2="464" y2="104" stroke="#444" stroke-width="0.5" stroke-dasharray="2,2"/>
<text x="443" y="100" font-size="7.5" fill="#444" text-anchor="middle">.60</text>
<line x1="464" y1="104" x2="562" y2="104" stroke="#444" stroke-width="0.7"/>
<line x1="464" y1="100" x2="464" y2="108" stroke="#444" stroke-width="0.7"/>
<line x1="562" y1="100" x2="562" y2="108" stroke="#444" stroke-width="0.7"/>
<line x1="464" y1="130" x2="464" y2="104" stroke="#444" stroke-width="0.5" stroke-dasharray="2,2"/>
<line x1="562" y1="130" x2="562" y2="104" stroke="#444" stroke-width="0.5" stroke-dasharray="2,2"/>
<text x="513" y="100" font-size="7.5" fill="#444" text-anchor="middle">1.40 m</text>
<line x1="562" y1="104" x2="744" y2="104" stroke="#444" stroke-width="0.7"/>
<line x1="562" y1="100" x2="562" y2="108" stroke="#444" stroke-width="0.7"/>
<line x1="744" y1="100" x2="744" y2="108" stroke="#444" stroke-width="0.7"/>
<line x1="562" y1="130" x2="562" y2="104" stroke="#444" stroke-width="0.5" stroke-dasharray="2,2"/>
<line x1="744" y1="130" x2="744" y2="104" stroke="#444" stroke-width="0.5" stroke-dasharray="2,2"/>
<text x="653" y="100" font-size="7.5" fill="#444" text-anchor="middle">2.60 m</text>
<line x1="744" y1="104" x2="828" y2="104" stroke="#444" stroke-width="0.7"/>
<line x1="744" y1="100" x2="744" y2="108" stroke="#444" stroke-width="0.7"/>
<line x1="828" y1="100" x2="828" y2="108" stroke="#444" stroke-width="0.7"/>
<line x1="744" y1="130" x2="744" y2="104" stroke="#444" stroke-width="0.5" stroke-dasharray="2,2"/>
<line x1="828" y1="130" x2="828" y2="104" stroke="#444" stroke-width="0.5" stroke-dasharray="2,2"/>
<text x="786" y="100" font-size="7.5" fill="#444" text-anchor="middle">1.20 m</text>
<line x1="170" y1="86" x2="885" y2="86" stroke="#444" stroke-width="0.7"/>
<line x1="170" y1="82" x2="170" y2="90" stroke="#444" stroke-width="0.7"/>
<line x1="885" y1="82" x2="885" y2="90" stroke="#444" stroke-width="0.7"/>
<line x1="170" y1="130" x2="170" y2="86" stroke="#444" stroke-width="0.5" stroke-dasharray="2,2"/>
<line x1="885" y1="130" x2="885" y2="86" stroke="#444" stroke-width="0.5" stroke-dasharray="2,2"/>
<text x="527" y="82" font-size="7.5" fill="#444" text-anchor="middle">10.21 m</text>
<line x1="899" y1="130" x2="899" y2="340" stroke="#444" stroke-width="0.7"/>
<line x1="895" y1="130" x2="903" y2="130" stroke="#444" stroke-width="0.7"/>
<line x1="895" y1="340" x2="903" y2="340" stroke="#444" stroke-width="0.7"/>
<line x1="885" y1="130" x2="899" y2="130" stroke="#444" stroke-width="0.5" stroke-dasharray="2,2"/>
<line x1="885" y1="340" x2="899" y2="340" stroke="#444" stroke-width="0.5" stroke-dasharray="2,2"/>
<text x="903" y="238" font-size="7.5" fill="#444" text-anchor="start">3.00 m</text>
<line x1="915" y1="130" x2="915" y2="249" stroke="#444" stroke-width="0.7"/>
<line x1="911" y1="130" x2="919" y2="130" stroke="#444" stroke-width="0.7"/>
<line x1="911" y1="249" x2="919" y2="249" stroke="#444" stroke-width="0.7"/>
<line x1="885" y1="130" x2="915" y2="130" stroke="#444" stroke-width="0.5" stroke-dasharray="2,2"/>
<line x1="885" y1="249" x2="915" y2="249" stroke="#444" stroke-width="0.5" stroke-dasharray="2,2"/>
<text x="919" y="192" font-size="7.5" fill="#444" text-anchor="start">1.70 m</text>
<line x1="931" y1="340" x2="931" y2="459" stroke="#444" stroke-width="0.7"/>
<line x1="927" y1="340" x2="935" y2="340" stroke="#444" stroke-width="0.7"/>
<line x1="927" y1="459" x2="935" y2="459" stroke="#444" stroke-width="0.7"/>
<line x1="885" y1="340" x2="931" y2="340" stroke="#444" stroke-width="0.5" stroke-dasharray="2,2"/>
<line x1="885" y1="459" x2="931" y2="459" stroke="#444" stroke-width="0.5" stroke-dasharray="2,2"/>
<text x="935" y="402" font-size="7.5" fill="#444" text-anchor="start">1.70 m</text>
<line x1="170" y1="530" x2="685" y2="530" stroke="#444" stroke-width="0.7"/>
<line x1="170" y1="526" x2="170" y2="534" stroke="#444" stroke-width="0.7"/>
<line x1="685" y1="526" x2="685" y2="534" stroke="#444" stroke-width="0.7"/>
<line x1="170" y1="550" x2="170" y2="530" stroke="#444" stroke-width="0.5" stroke-dasharray="2,2"/>
<line x1="685" y1="550" x2="685" y2="530" stroke="#444" stroke-width="0.5" stroke-dasharray="2,2"/>
<text x="427" y="526" font-size="7.5" fill="#444" text-anchor="middle">7.35 m</text>
<line x1="109" y1="340" x2="109" y2="550" stroke="#444" stroke-width="0.7"/>
<line x1="105" y1="340" x2="113" y2="340" stroke="#444" stroke-width="0.7"/>
<line x1="105" y1="550" x2="113" y2="550" stroke="#444" stroke-width="0.7"/>
<line x1="95" y1="340" x2="109" y2="340" stroke="#444" stroke-width="0.5" stroke-dasharray="2,2"/>
<line x1="95" y1="550" x2="109" y2="550" stroke="#444" stroke-width="0.5" stroke-dasharray="2,2"/>
<text x="113" y="448" font-size="7.5" fill="#444" text-anchor="start">3.00 m</text>
<circle cx="915" cy="80" r="18" fill="none" stroke="#888" stroke-width="0.8"/>
<polygon points="915,64 910,80 915,76 920,80" fill="#111111"/>
<polygon points="915,96 910,80 915,84 920,80" fill="#CCC"/>
<text x="915" y="60" font-size="9" fill="#111111" text-anchor="middle" font-weight="bold">N</text>
<text x="850" y="115" font-size="6.5" fill="#666">0</text>
<text x="920" y="115" font-size="6.5" fill="#666" text-anchor="middle">1 m</text>
<text x="990" y="115" font-size="6.5" fill="#666" text-anchor="end">2 m</text>
<rect x="850" y="118" width="70" height="7" fill="#111111"/>
<rect x="920" y="118" width="70" height="7" fill="#CCC"/>
<text x="920" y="136" font-size="7" fill="#888" text-anchor="middle">Escala 1:100</text>
<rect x="825" y="160" width="145" height="105" fill="#FFF" stroke="#DDD" stroke-width="0.8" rx="2"/>
<text x="898" y="176" font-size="8" fill="#111111" text-anchor="middle" font-weight="bold">DEPTO 102  ·  PISO 1</text>
<line x1="825" y1="180" x2="970" y2="180" stroke="#DDD" stroke-width="0.5"/>
<text x="832" y="193" font-size="7.5" fill="#555">Superficie total</text>
<text x="966" y="193" font-size="7.5" fill="#111111" text-anchor="end" font-weight="bold">56.43 m²</text>
<text x="832" y="210" font-size="7.5" fill="#555">Cubierta</text>
<text x="966" y="210" font-size="7.5" fill="#111111" text-anchor="end" font-weight="bold">53.21 m²</text>
<text x="832" y="227" font-size="7.5" fill="#555">Semicubierta (balcón)</text>
<text x="966" y="227" font-size="7.5" fill="#111111" text-anchor="end" font-weight="bold">3.22 m²</text>
<text x="832" y="244" font-size="7.5" fill="#555">Ambientes</text>
<text x="966" y="244" font-size="7.5" fill="#111111" text-anchor="end" font-weight="bold">2</text>
</svg>